# xmcd
#
# Track frame offsets:
#	150
#	13917
#	24083
#	33553
#	45874
#	59649
#	70706
#	84486
#	97498
#	109008
#	120774
#	132401
#	145746
#	157793
#	167635
#	177816
#	191596
#	202776
#	216692
#	229181
#	239113
#	245767
#	260138
#	275786
#	283243
#	295557
#	306928
#	320728
#	334482
#	346858
#
# Disc length: 4788 seconds
#
# Revision: 0
# Processed by: cddbd v1.5.2PL0 Copyright (c) Steve Scherf et al.
# Submitted via: audiograbber 1.83.01
#
DISCID=cd12b21e
DTITLE=Rosealie Allen - The Versatile Rosalie Allen [CD1]
DYEAR=2010
DGENRE=Country
TTITLE0=I Want To Be A Cowboys Sweetheart
TTITLE1=Tennessee Waltz
TTITLE2=Guitar Polka (Old Monterey) [Later Version]
TTITLE3=Better Late Than Never
TTITLE4=Tears On My Pillow
TTITLE5=I'd Rather Be A Cowgirl
TTITLE6=Have I Told You Lately That I Love You
TTITLE7=On Silver Wings To San Antone
TTITLE8=Your Cheatin' Heart
TTITLE9=I'll Never Grieve (Oh No, Oh No)
TTITLE10=Choc'late Ice Cream Cone
TTITLE11=When My Blue Moon Turns To Gold Again
TTITLE12=He Taught Me How To Yodel
TTITLE13=Along The Lonely Trail
TTITLE14=Tennessee Yodel Polka
TTITLE15=Hitler Lives
TTITLE16=Have You Ever Been Lonely
TTITLE17=I Can't Tell That To My Heart
TTITLE18=Po' Folks (All The Time)
TTITLE19=Dream Train
TTITLE20=Yodel Your Troubles Away
TTITLE21=Take It Back And Change It For The Boy
TTITLE22=Jealous Heart
TTITLE23=When A Cowgirl Is Happy
TTITLE24=It Makes No Difference Now
TTITLE25=Spanish Polka
TTITLE26=Me Go Where You Go Amigo
TTITLE27=My Dolly Has A Broken Heart
TTITLE28=Columbus Stockade Blues
TTITLE29=The Honey Song
EXTD=
EXTT0=
EXTT1=
EXTT2=
EXTT3=
EXTT4=
EXTT5=
EXTT6=
EXTT7=
EXTT8=
EXTT9=
EXTT10=
EXTT11=
EXTT12=
EXTT13=
EXTT14=
EXTT15=
EXTT16=
EXTT17=
EXTT18=
EXTT19=
EXTT20=
EXTT21=
EXTT22=
EXTT23=
EXTT24=
EXTT25=
EXTT26=
EXTT27=
EXTT28=
EXTT29=
PLAYORDER=
